<svg width="16" height="16" viewBox="0 0 16 16" fill="none" xmlns="http://www.w3.org/2000/svg">
<rect opacity="0.01" width="16" height="16" fill="#DFD4FF"/>
<rect opacity="0.01" x="1.33331" y="1.33325" width="13.3333" height="13.3333" fill="#885EFE"/>
<path fill-rule="evenodd" clip-rule="evenodd" d="M7.99998 1.33325C4.31826 1.33325 1.33331 4.31807 1.33331 7.99992C1.33331 11.6818 4.31826 14.6666 7.99998 14.6666C11.6821 14.6666 14.6666 11.6818 14.6666 7.99992C14.6666 4.31807 11.682 1.33325 7.99998 1.33325ZM6.8061 11.3954C6.79005 11.4114 6.76402 11.4114 6.74797 11.3954L4.33079 8.97831C4.0606 8.70813 4.0606 8.27008 4.33078 7.99989C4.60096 7.72971 5.03899 7.72971 5.30918 7.99988L6.77704 9.46764L10.6908 5.55379C10.961 5.2836 11.399 5.2836 11.6692 5.55378C11.9394 5.82396 11.9394 6.262 11.6692 6.53218L6.8061 11.3954Z" fill="#4BCE8B"/>
</svg>
