<?xml version="1.0" encoding="UTF-8"?>
<svg width="40px" height="40px" viewBox="0 0 40 40" version="1.1" xmlns="http://www.w3.org/2000/svg" xmlns:xlink="http://www.w3.org/1999/xlink">
    <!-- Generator: Sketch 64 (93537) - https://sketch.com -->
    <title>instagram</title>
    <desc>Created with Sketch.</desc>
    <defs>
        <linearGradient x1="6.71416922%" y1="93.4850191%" x2="93.6081727%" y2="6.61873642%" id="linearGradient-1">
            <stop stop-color="#FFDD55" offset="0%"></stop>
            <stop stop-color="#FF543E" offset="50%"></stop>
            <stop stop-color="#C837AB" offset="100%"></stop>
        </linearGradient>
    </defs>
    <g id="Corporate-Site" stroke="none" stroke-width="1" fill="none" fill-rule="evenodd">
        <g id="Corporate-Site---Slide-03" transform="translate(-1144.000000, -6917.000000)" fill-rule="nonzero">
            <g id="instagram" transform="translate(1144.000000, 6917.000000)">
                <circle id="Oval" fill="url(#linearGradient-1)" cx="20" cy="20" r="20"></circle>
                <path d="M20.0002981,8.01156772 C15.0851178,8.01156772 10.4176594,7.57467187 8.63487439,12.1465231 C7.89847724,14.0347789 8.00541727,16.4870766 8.00541727,19.9984748 C8.00541727,23.0797402 7.90659927,25.9756969 8.63487439,27.8490738 C10.4135984,32.4236303 15.1189596,31.9853819 19.9975907,31.9853819 C24.7043056,31.9853819 29.557217,32.4750298 31.3616607,27.8490738 C32.0994116,25.9418814 31.9911179,23.5261044 31.9911179,19.9984748 C31.9911179,15.3157088 32.2496691,12.292606 29.9768551,10.0229118 C27.675614,7.72345993 24.5635238,8.01156772 19.9948834,8.01156772 L20.0002981,8.01156772 Z M18.9254831,10.1716998 C29.178189,10.1554684 30.4831281,9.01656342 29.762975,24.8381446 C29.5071312,30.4339282 25.2430668,29.8198393 20.0016517,29.8198393 C10.4447328,29.8198393 10.1699376,29.5466103 10.1699376,19.9930643 C10.1699376,10.3286036 10.9279935,10.1771103 18.9254831,10.1689946 L18.9254831,10.1716998 Z M26.403163,12.1614019 C25.608558,12.1614019 24.9642105,12.8052485 24.9642105,13.5992356 C24.9642105,14.3932228 25.608558,15.0370693 26.403163,15.0370693 C27.197768,15.0370693 27.8421155,14.3932228 27.8421155,13.5992356 C27.8421155,12.8052485 27.197768,12.1614019 26.403163,12.1614019 L26.403163,12.1614019 Z M20.0002981,13.842707 C16.5985223,13.842707 13.841094,16.599344 13.841094,19.9984748 C13.841094,23.3976056 16.5985223,26.15289 20.0002981,26.15289 C23.4020739,26.15289 26.1581485,23.3976056 26.1581485,19.9984748 C26.1581485,16.599344 23.4020739,13.842707 20.0002981,13.842707 Z M20.0002981,16.0028391 C25.2863842,16.0028391 25.2931526,23.9941105 20.0002981,23.9941105 C14.7155656,23.9941105 14.7074435,16.0028391 20.0002981,16.0028391 Z" id="Shape" fill="#FFFFFF"></path>
            </g>
        </g>
    </g>
</svg>
