<svg width="40" height="40" viewBox="0 0 40 40" fill="none" xmlns="http://www.w3.org/2000/svg">
<path d="M19.8577 39.7154C30.8248 39.7154 39.7154 30.8248 39.7154 19.8577C39.7154 8.89059 30.8248 0 19.8577 0C8.89059 0 0 8.89059 0 19.8577C0 30.8248 8.89059 39.7154 19.8577 39.7154Z" fill="#007AB9"/>
<path fill-rule="evenodd" clip-rule="evenodd" d="M12.2676 8.48486C10.6438 8.48486 9.58154 9.5507 9.58154 10.9511C9.58154 12.3217 10.613 13.4183 12.2053 13.4183H12.2361C13.8916 13.4183 14.921 12.3217 14.921 10.9511C14.8895 9.5507 13.8916 8.48486 12.2676 8.48486ZM31.7224 21.4555V29.6424H26.9759V22.0042C26.9759 20.0863 26.2906 18.7765 24.572 18.7765C23.2605 18.7765 22.4814 19.6583 22.1373 20.5121C22.0123 20.8173 21.9801 21.241 21.9801 21.6689V29.642H17.2332C17.2332 29.642 17.2969 16.7054 17.2332 15.3663H21.9805V17.3893C21.976 17.3968 21.9707 17.4041 21.9654 17.4115L21.9654 17.4115C21.9594 17.4198 21.9535 17.4279 21.949 17.436H21.9805V17.3893C22.6113 16.4187 23.7362 15.0311 26.2584 15.0311C29.3812 15.0311 31.7224 17.0714 31.7224 21.4555ZM14.6088 29.6424H9.86367V15.3663H14.6088V29.6424Z" fill="#F1F2F2"/>
</svg>
