<?xml version="1.0" encoding="UTF-8"?>
<svg width="24px" height="14px" viewBox="0 0 24 14" version="1.1" xmlns="http://www.w3.org/2000/svg" xmlns:xlink="http://www.w3.org/1999/xlink">
    <title>ic_menu</title>
    <g id="Corporate-Site" stroke="none" stroke-width="1" fill="none" fill-rule="evenodd">
        <g id="header" transform="translate(-16.000000, -18.000000)" fill="#885EFE">
            <path d="M33,30 C33.5522847,30 34,30.4477153 34,31 C34,31.5522847 33.5522847,32 33,32 L17,32 C16.4477153,32 16,31.5522847 16,31 C16,30.4477153 16.4477153,30 17,30 L33,30 Z M27,24 C27.5522847,24 28,24.4477153 28,25 C28,25.5522847 27.5522847,26 27,26 L17,26 C16.4477153,26 16,25.5522847 16,25 C16,24.4477153 16.4477153,24 17,24 L27,24 Z M39,18 C39.5522847,18 40,18.4477153 40,19 C40,19.5522847 39.5522847,20 39,20 L17,20 C16.4477153,20 16,19.5522847 16,19 C16,18.4477153 16.4477153,18 17,18 L39,18 Z" id="ic_menu"></path>
        </g>
    </g>
</svg>
